<?xml version="1.0" encoding="UTF-8" standalone="no"?>
<!-- Created with Inkscape (http://www.inkscape.org/) -->

<svg
   xmlns:dc="http://purl.org/dc/elements/1.1/"
   xmlns:cc="http://creativecommons.org/ns#"
   xmlns:rdf="http://www.w3.org/1999/02/22-rdf-syntax-ns#"
   xmlns:svg="http://www.w3.org/2000/svg"
   xmlns="http://www.w3.org/2000/svg"
   xmlns:sodipodi="http://sodipodi.sourceforge.net/DTD/sodipodi-0.dtd"
   xmlns:inkscape="http://www.inkscape.org/namespaces/inkscape"
   width="154.68251mm"
   height="277.71658mm"
   viewBox="0 0 154.68251 277.71658"
   version="1.1"
   id="svg8"
   sodipodi:docname="trapezoidal.svg"
   inkscape:version="0.92.3 (2405546, 2018-03-11)">
  <sodipodi:namedview
     id="base"
     pagecolor="#ffffff"
     bordercolor="#666666"
     borderopacity="1.0"
     inkscape:pageopacity="0.0"
     inkscape:pageshadow="2"
     inkscape:zoom="0.7"
     inkscape:cx="254.76899"
     inkscape:cy="516.67949"
     inkscape:document-units="mm"
     inkscape:current-layer="layer1"
     showgrid="false"
     showguides="false"
     inkscape:guide-bbox="true"
     inkscape:window-width="1849"
     inkscape:window-height="1023"
     inkscape:window-x="71"
     inkscape:window-y="27"
     inkscape:window-maximized="1">
    <sodipodi:guide
       position="-45.976608,261.68532"
       orientation="0,1"
       id="guide5365"
       inkscape:locked="false" />
    <sodipodi:guide
       position="0.51446101,229.17937"
       orientation="1,0"
       id="guide5371"
       inkscape:locked="false" />
    <sodipodi:guide
       position="127.13648,214.06032"
       orientation="1,0"
       id="guide5375"
       inkscape:locked="false" />
  </sodipodi:namedview>
  <defs
     id="defs2">
    <marker
       inkscape:stockid="Arrow1Lstart"
       orient="auto"
       refY="0"
       refX="0"
       id="marker5251"
       style="overflow:visible"
       inkscape:isstock="true">
      <path
         id="path5249"
         d="M 0,0 5,-5 -12.5,0 5,5 Z"
         style="fill:#000000;fill-opacity:1;fill-rule:evenodd;stroke:#000000;stroke-width:1.00000003pt;stroke-opacity:1"
         transform="matrix(0.8,0,0,0.8,10,0)"
         inkscape:connector-curvature="0" />
    </marker>
    <marker
       inkscape:isstock="true"
       style="overflow:visible"
       id="marker5155"
       refX="0"
       refY="0"
       orient="auto"
       inkscape:stockid="Arrow1Lstart"
       inkscape:collect="always">
      <path
         transform="matrix(0.8,0,0,0.8,10,0)"
         style="fill:#000000;fill-opacity:1;fill-rule:evenodd;stroke:#000000;stroke-width:1.00000003pt;stroke-opacity:1"
         d="M 0,0 5,-5 -12.5,0 5,5 Z"
         id="path5153"
         inkscape:connector-curvature="0" />
    </marker>
    <marker
       inkscape:isstock="true"
       style="overflow:visible"
       id="marker5103"
       refX="0"
       refY="0"
       orient="auto"
       inkscape:stockid="Arrow1Lend">
      <path
         transform="matrix(-0.8,0,0,-0.8,-10,0)"
         style="fill:#000000;fill-opacity:1;fill-rule:evenodd;stroke:#000000;stroke-width:1.00000003pt;stroke-opacity:1"
         d="M 0,0 5,-5 -12.5,0 5,5 Z"
         id="path5101"
         inkscape:connector-curvature="0" />
    </marker>
    <marker
       inkscape:isstock="true"
       style="overflow:visible"
       id="marker5057"
       refX="0"
       refY="0"
       orient="auto"
       inkscape:stockid="Arrow1Lend">
      <path
         transform="matrix(-0.8,0,0,-0.8,-10,0)"
         style="fill:#000000;fill-opacity:1;fill-rule:evenodd;stroke:#000000;stroke-width:1.00000003pt;stroke-opacity:1"
         d="M 0,0 5,-5 -12.5,0 5,5 Z"
         id="path5055"
         inkscape:connector-curvature="0" />
    </marker>
    <marker
       inkscape:stockid="Arrow1Lend"
       orient="auto"
       refY="0"
       refX="0"
       id="marker5009"
       style="overflow:visible"
       inkscape:isstock="true"
       inkscape:collect="always">
      <path
         id="path5007"
         d="M 0,0 5,-5 -12.5,0 5,5 Z"
         style="fill:#000000;fill-opacity:1;fill-rule:evenodd;stroke:#000000;stroke-width:1.00000003pt;stroke-opacity:1"
         transform="matrix(-0.8,0,0,-0.8,-10,0)"
         inkscape:connector-curvature="0" />
    </marker>
    <marker
       inkscape:stockid="Arrow1Lend"
       orient="auto"
       refY="0"
       refX="0"
       id="Arrow1Lend"
       style="overflow:visible"
       inkscape:isstock="true">
      <path
         id="path4690"
         d="M 0,0 5,-5 -12.5,0 5,5 Z"
         style="fill:#000000;fill-opacity:1;fill-rule:evenodd;stroke:#000000;stroke-width:1.00000003pt;stroke-opacity:1"
         transform="matrix(-0.8,0,0,-0.8,-10,0)"
         inkscape:connector-curvature="0" />
    </marker>
    <marker
       inkscape:stockid="Arrow1Lstart"
       orient="auto"
       refY="0"
       refX="0"
       id="Arrow1Lstart"
       style="overflow:visible"
       inkscape:isstock="true"
       inkscape:collect="always">
      <path
         id="path4687"
         d="M 0,0 5,-5 -12.5,0 5,5 Z"
         style="fill:#000000;fill-opacity:1;fill-rule:evenodd;stroke:#000000;stroke-width:1.00000003pt;stroke-opacity:1"
         transform="matrix(0.8,0,0,0.8,10,0)"
         inkscape:connector-curvature="0" />
    </marker>
    <marker
       inkscape:stockid="Arrow1Lstart"
       orient="auto"
       refY="0"
       refX="0"
       id="Arrow1Lstart-1"
       style="overflow:visible"
       inkscape:isstock="true"
       inkscape:collect="always">
      <path
         inkscape:connector-curvature="0"
         id="path4687-5"
         d="M 0,0 5,-5 -12.5,0 5,5 Z"
         style="fill:#000000;fill-opacity:1;fill-rule:evenodd;stroke:#000000;stroke-width:1.00000003pt;stroke-opacity:1"
         transform="matrix(0.8,0,0,0.8,10,0)" />
    </marker>
    <marker
       inkscape:stockid="Arrow1Lend"
       orient="auto"
       refY="0"
       refX="0"
       id="marker5009-8"
       style="overflow:visible"
       inkscape:isstock="true"
       inkscape:collect="always">
      <path
         inkscape:connector-curvature="0"
         id="path5007-8"
         d="M 0,0 5,-5 -12.5,0 5,5 Z"
         style="fill:#000000;fill-opacity:1;fill-rule:evenodd;stroke:#000000;stroke-width:1.00000003pt;stroke-opacity:1"
         transform="matrix(-0.8,0,0,-0.8,-10,0)" />
    </marker>
  </defs>
  <metadata
     id="metadata5">
    <rdf:RDF>
      <cc:Work
         rdf:about="">
        <dc:format>image/svg+xml</dc:format>
        <dc:type
           rdf:resource="http://purl.org/dc/dcmitype/StillImage" />
        <dc:title />
      </cc:Work>
    </rdf:RDF>
  </metadata>
  <g
     inkscape:label="Layer 1"
     inkscape:groupmode="layer"
     id="layer1"
     transform="translate(-27.455776,-2.400277)">
    <g
       id="g30"
       transform="translate(-2.6458331,176.89286)">
      <g
         id="content"
         transform="matrix(0.3,0,0,-0.3,-52.5,222.75)"
         xml:space="preserve"
         stroke-miterlimit="10.433"
         font-style="normal"
         font-variant="normal"
         font-weight="normal"
         font-stretch="normal"
         font-size-adjust="none"
         letter-spacing="normal"
         word-spacing="normal"
         style="font-style:normal;font-variant:normal;font-weight:normal;font-stretch:normal;letter-spacing:normal;word-spacing:normal;text-anchor:start;fill:none;fill-opacity:1;fill-rule:evenodd;stroke:#000000;stroke-linecap:butt;stroke-linejoin:miter;stroke-miterlimit:10.43299961;stroke-dasharray:none;stroke-dashoffset:0;stroke-opacity:1"><path
           d="m 501.21,434.45 0.23,0.4 0.24,0.4 0.24,0.38 0.24,0.37 0.13,0.18 0.13,0.17 0.14,0.17 0.13,0.16 0.14,0.16 0.15,0.16 0.15,0.15 0.16,0.14 0.16,0.14 0.17,0.13 0.17,0.13 0.18,0.12 0.19,0.11 0.19,0.11 0.2,0.1 0.21,0.09 0.22,0.09 0.23,0.08 0.24,0.07 0.25,0.06 0.25,0.05 0.27,0.05 0.28,0.04 0.29,0.02 c 0.45,0.05 0.95,0.05 0.95,1 0,0.19 -0.2,0.55 -0.61,0.55 -1.19,0 -2.58,-0.16 -3.83,-0.16 -1.7,0 -3.55,0.16 -5.19,0.16 -0.29,0 -0.93,0 -0.93,-0.95 0,-0.55 0.43,-0.6 0.73,-0.6 1.2,-0.04 2.95,-0.45 2.95,-1.93 0,-0.55 -0.25,-0.96 -0.65,-1.66 l -13.46,-23.45 -1.84,24.7 c -0.05,1 -0.14,2.3 3.48,2.34 0.86,0 1.36,0 1.36,1 0,0.5 -0.56,0.55 -0.75,0.55 -2,0 -4.09,-0.16 -6.07,-0.16 -1.16,0 -4.1,0.16 -5.24,0.16 -0.3,0 -0.95,0 -0.95,-1 0,-0.55 0.5,-0.55 1.2,-0.55 2.19,0 2.53,-0.29 2.64,-1.25 l 0.3,-3.82 -12.61,-21.97 -1.89,25.25 c 0,0.59 0,1.75 3.78,1.79 0.5,0 1.05,0 1.05,1 0,0.55 -0.6,0.55 -0.69,0.55 -2,0 -4.09,-0.16 -6.13,-0.16 -1.75,0 -3.54,0.16 -5.23,0.16 -0.25,0 -0.91,0 -0.91,-0.95 0,-0.6 0.46,-0.6 1.25,-0.6 2.5,0 2.55,-0.45 2.64,-1.84 l 2.25,-30.44 c 0.05,-0.9 0.1,-1.29 0.8,-1.29 0.6,0 0.74,0.29 1.19,1.04 l 14.66,25.41 1.84,-25.16 c 0.09,-1.04 0.19,-1.29 0.8,-1.29 0.64,0 0.93,0.5 1.18,0.93 z"
           id="path25"
           inkscape:connector-curvature="0"
           style="fill:#000000;stroke-width:0" /><path
           d="m 511.76,421.9 v 0.01 h 0.01 v 0 0.01 0 0.01 0.01 h 0.01 v 0.01 0.01 l 0.01,0.01 v 0.02 l 0.01,0.02 v 0.02 l 0.01,0.02 v 0.02 l 0.01,0.02 0.01,0.03 v 0.02 l 0.01,0.05 0.02,0.04 v 0.03 l 0.01,0.02 v 0.02 l 0.01,0.02 v 0.02 0.02 l 0.01,0.02 v 0.01 0.01 0.01 h 0.01 v 0.01 0 0.01 0 0.01 0 0 0.01 0 c 0,0.19 -0.14,0.5 -0.56,0.5 -0.7,0 -3.59,-0.28 -4.45,-0.36 -0.28,-0.03 -0.78,-0.06 -0.78,-0.8 0,-0.48 0.5,-0.48 0.9,-0.48 1.67,0 1.67,-0.25 1.67,-0.53 0,-0.24 -0.34,-1.63 -0.54,-2.44 l -0.8,-3.2 c -0.33,-1.19 -2.23,-8.82 -2.31,-9.27 -0.17,-0.84 -0.17,-1.3 -0.17,-1.7 0,-3.53 2.23,-5.75 5.12,-5.75 l 0.03,0.97 c -1.7,0 -2.67,1.5 -2.67,3.56 0,1.28 0.31,2.47 1.28,6.41 0.2,0.65 0.2,0.73 0.88,1.5 1.32,1.53 2.89,2.29 4.14,2.29 1.36,0 2.54,-1.01 2.54,-3.37 0,-1.44 -0.76,-4.99 -1.81,-7.02 -0.84,-1.7 -2.58,-3.37 -4.36,-3.37 v 0 l -0.03,-0.97 c 4.36,0 8.99,4.73 8.99,9.89 0,4.08 -2.82,5.81 -5.22,5.81 -1.82,0 -3.35,-1 -4.39,-1.91 z"
           id="path27"
           inkscape:connector-curvature="0"
           style="fill:#000000;stroke-width:0" /></g>    </g>
    <g
       id="g62"
       transform="matrix(0.87946227,0,0,0.87946227,10.594386,-77.350241)">
      <g
         word-spacing="normal"
         letter-spacing="normal"
         font-size-adjust="none"
         font-stretch="normal"
         font-weight="normal"
         font-variant="normal"
         font-style="normal"
         stroke-miterlimit="10.433"
         xml:space="preserve"
         transform="matrix(0.3,0,0,-0.3,-52.5,222.75)"
         id="g60"
         style="font-style:normal;font-variant:normal;font-weight:normal;font-stretch:normal;letter-spacing:normal;word-spacing:normal;text-anchor:start;fill:none;fill-opacity:1;fill-rule:evenodd;stroke:#000000;stroke-linecap:butt;stroke-linejoin:miter;stroke-miterlimit:10.43299961;stroke-dasharray:none;stroke-dashoffset:0;stroke-opacity:1"><path
           id="path56"
           d="m 501.21,434.45 0.23,0.4 0.24,0.4 0.24,0.38 0.24,0.37 0.13,0.18 0.13,0.17 0.14,0.17 0.13,0.16 0.14,0.16 0.15,0.16 0.15,0.15 0.16,0.14 0.16,0.14 0.17,0.13 0.17,0.13 0.18,0.12 0.19,0.11 0.19,0.11 0.2,0.1 0.21,0.09 0.22,0.09 0.23,0.08 0.24,0.07 0.25,0.06 0.25,0.05 0.27,0.05 0.28,0.04 0.29,0.02 c 0.45,0.05 0.95,0.05 0.95,1 0,0.19 -0.2,0.55 -0.61,0.55 -1.19,0 -2.58,-0.16 -3.83,-0.16 -1.7,0 -3.55,0.16 -5.19,0.16 -0.29,0 -0.93,0 -0.93,-0.95 0,-0.55 0.43,-0.6 0.73,-0.6 1.2,-0.04 2.95,-0.45 2.95,-1.93 0,-0.55 -0.25,-0.96 -0.65,-1.66 l -13.46,-23.45 -1.84,24.7 c -0.05,1 -0.14,2.3 3.48,2.34 0.86,0 1.36,0 1.36,1 0,0.5 -0.56,0.55 -0.75,0.55 -2,0 -4.09,-0.16 -6.07,-0.16 -1.16,0 -4.1,0.16 -5.24,0.16 -0.3,0 -0.95,0 -0.95,-1 0,-0.55 0.5,-0.55 1.2,-0.55 2.19,0 2.53,-0.29 2.64,-1.25 l 0.3,-3.82 -12.61,-21.97 -1.89,25.25 c 0,0.59 0,1.75 3.78,1.79 0.5,0 1.05,0 1.05,1 0,0.55 -0.6,0.55 -0.69,0.55 -2,0 -4.09,-0.16 -6.13,-0.16 -1.75,0 -3.54,0.16 -5.23,0.16 -0.25,0 -0.91,0 -0.91,-0.95 0,-0.6 0.46,-0.6 1.25,-0.6 2.5,0 2.55,-0.45 2.64,-1.84 l 2.25,-30.44 c 0.05,-0.9 0.1,-1.29 0.8,-1.29 0.6,0 0.74,0.29 1.19,1.04 l 14.66,25.41 1.84,-25.16 c 0.09,-1.04 0.19,-1.29 0.8,-1.29 0.64,0 0.93,0.5 1.18,0.93 z"
           inkscape:connector-curvature="0"
           style="fill:#000000;stroke-width:0" /><path
           id="path58"
           d="m 510.75,405.79 v 0.02 0.01 l 0.01,0.02 v 0.03 l 0.01,0.03 v 0.03 l 0.01,0.03 0.01,0.04 0.01,0.04 0.01,0.05 0.01,0.04 0.02,0.06 0.01,0.05 0.01,0.05 0.03,0.12 0.03,0.13 0.04,0.13 0.03,0.15 0.04,0.14 0.04,0.15 0.04,0.15 0.08,0.32 0.08,0.31 0.04,0.15 0.04,0.15 0.03,0.14 0.04,0.14 0.04,0.14 0.03,0.12 0.03,0.12 0.01,0.05 0.02,0.05 0.01,0.05 0.01,0.05 0.02,0.04 0.01,0.04 0.01,0.04 0.01,0.03 v 0.03 l 0.01,0.03 0.01,0.02 v 0.02 l 0.01,0.01 v 0.01 c 0.08,0.29 1.08,2.02 2.2,2.86 0.38,0.27 1.32,0.97 2.82,0.97 0.34,0 1.22,-0.03 1.92,-0.48 -1.12,-0.31 -1.53,-1.3 -1.53,-1.92 0,-0.77 0.59,-1.29 1.39,-1.29 0.8,0 1.95,0.66 1.95,2.13 0,1.81 -1.92,2.53 -3.7,2.53 -1.81,0 -3.38,-0.72 -4.91,-2.47 -0.62,2.13 -2.75,2.47 -3.59,2.47 -1.28,0 -2.16,-0.8 -2.72,-1.76 -0.8,-1.36 -1.28,-3.4 -1.28,-3.57 0,-0.45 0.48,-0.45 0.59,-0.45 0.49,0 0.52,0.11 0.77,1.05 0.51,2.12 1.19,3.76 2.55,3.76 0.9,0 1.14,-0.76 1.14,-1.7 0,-0.67 -0.32,-1.95 -0.57,-2.89 -0.23,-0.95 -0.57,-2.38 -0.76,-3.14 l -1.11,-4.47 c -0.14,-0.44 -0.35,-1.31 -0.35,-1.42 0,-0.77 0.63,-1.11 1.19,-1.11 0.52,0 1.22,0.31 1.49,1 0.07,0.22 0.45,1.75 0.67,2.62 z"
           inkscape:connector-curvature="0"
           style="fill:#000000;stroke-width:0" /></g>    </g>
    <g
       id="g102"
       transform="translate(-0.66145884,84.194197)">
      <g
         id="g100"
         transform="matrix(0.3,0,0,-0.3,-52.5,222.75)"
         xml:space="preserve"
         stroke-miterlimit="10.433"
         font-style="normal"
         font-variant="normal"
         font-weight="normal"
         font-stretch="normal"
         font-size-adjust="none"
         letter-spacing="normal"
         word-spacing="normal"
         style="font-style:normal;font-variant:normal;font-weight:normal;font-stretch:normal;letter-spacing:normal;word-spacing:normal;text-anchor:start;fill:none;fill-opacity:1;fill-rule:evenodd;stroke:#000000;stroke-linecap:butt;stroke-linejoin:miter;stroke-miterlimit:10.43299961;stroke-dasharray:none;stroke-dashoffset:0;stroke-opacity:1"><path
           d="m 501.21,434.45 0.23,0.4 0.24,0.4 0.24,0.38 0.24,0.37 0.13,0.18 0.13,0.17 0.14,0.17 0.13,0.16 0.14,0.16 0.15,0.16 0.15,0.15 0.16,0.14 0.16,0.14 0.17,0.13 0.17,0.13 0.18,0.12 0.19,0.11 0.19,0.11 0.2,0.1 0.21,0.09 0.22,0.09 0.23,0.08 0.24,0.07 0.25,0.06 0.25,0.05 0.27,0.05 0.28,0.04 0.29,0.02 c 0.45,0.05 0.95,0.05 0.95,1 0,0.19 -0.2,0.55 -0.61,0.55 -1.19,0 -2.58,-0.16 -3.83,-0.16 -1.7,0 -3.55,0.16 -5.19,0.16 -0.29,0 -0.93,0 -0.93,-0.95 0,-0.55 0.43,-0.6 0.73,-0.6 1.2,-0.04 2.95,-0.45 2.95,-1.93 0,-0.55 -0.25,-0.96 -0.65,-1.66 l -13.46,-23.45 -1.84,24.7 c -0.05,1 -0.14,2.3 3.48,2.34 0.86,0 1.36,0 1.36,1 0,0.5 -0.56,0.55 -0.75,0.55 -2,0 -4.09,-0.16 -6.07,-0.16 -1.16,0 -4.1,0.16 -5.24,0.16 -0.3,0 -0.95,0 -0.95,-1 0,-0.55 0.5,-0.55 1.2,-0.55 2.19,0 2.53,-0.29 2.64,-1.25 l 0.3,-3.82 -12.61,-21.97 -1.89,25.25 c 0,0.59 0,1.75 3.78,1.79 0.5,0 1.05,0 1.05,1 0,0.55 -0.6,0.55 -0.69,0.55 -2,0 -4.09,-0.16 -6.13,-0.16 -1.75,0 -3.54,0.16 -5.23,0.16 -0.25,0 -0.91,0 -0.91,-0.95 0,-0.6 0.46,-0.6 1.25,-0.6 2.5,0 2.55,-0.45 2.64,-1.84 l 2.25,-30.44 c 0.05,-0.9 0.1,-1.29 0.8,-1.29 0.6,0 0.74,0.29 1.19,1.04 l 14.66,25.41 1.84,-25.16 c 0.09,-1.04 0.19,-1.29 0.8,-1.29 0.64,0 0.93,0.5 1.18,0.93 z"
           id="path96"
           inkscape:connector-curvature="0"
           style="fill:#000000;stroke-width:0" /><path
           d="m 511.14,412.53 h 3.54 c 0.66,0 1.11,0 1.11,0.76 0,0.49 -0.45,0.49 -1.03,0.49 h -3.31 l 1.28,5.15 c 0.03,0.18 0.11,0.35 0.11,0.49 0,0.64 -0.49,1.12 -1.19,1.12 -0.87,0 -1.39,-0.59 -1.64,-1.5 -0.23,-0.87 0.22,0.8 -1.33,-5.26 h -3.54 c -0.66,0 -1.11,0 -1.11,-0.77 0,-0.48 0.4,-0.48 1.04,-0.48 h 3.3 l -2.05,-8.22 c -0.21,-0.88 -0.53,-2.13 -0.53,-2.58 0,-2.06 1.75,-3.31 3.74,-3.31 3.87,0 6.06,4.87 6.06,5.33 0,0.45 -0.45,0.45 -0.56,0.45 -0.41,0 -0.46,-0.08 -0.72,-0.66 -0.99,-2.2 -2.77,-4.15 -4.67,-4.15 -0.74,0 -1.22,0.45 -1.22,1.7 0,0.36 0.14,1.09 0.2,1.44 z"
           id="path98"
           inkscape:connector-curvature="0"
           style="fill:#000000;stroke-width:0" /></g>    </g>
    <g
       id="g150"
       transform="translate(82.871279,109.32962)">
      <g
         word-spacing="normal"
         letter-spacing="normal"
         font-size-adjust="none"
         font-stretch="normal"
         font-weight="normal"
         font-variant="normal"
         font-style="normal"
         stroke-miterlimit="10.433"
         xml:space="preserve"
         transform="matrix(0.3,0,0,-0.3,-52.5,222.75)"
         id="g148"
         style="font-style:normal;font-variant:normal;font-weight:normal;font-stretch:normal;letter-spacing:normal;word-spacing:normal;text-anchor:start;fill:none;fill-opacity:1;fill-rule:evenodd;stroke:#000000;stroke-linecap:butt;stroke-linejoin:miter;stroke-miterlimit:10.43299961;stroke-dasharray:none;stroke-dashoffset:0;stroke-opacity:1"><path
           id="path144"
           d="m 474.16,436.34 0.04,0.16 0.04,0.16 0.04,0.15 0.04,0.15 0.04,0.13 0.05,0.13 0.05,0.13 0.05,0.11 0.06,0.12 0.06,0.1 0.08,0.1 0.08,0.09 0.09,0.09 0.1,0.08 0.11,0.08 0.12,0.07 0.13,0.06 0.15,0.06 0.16,0.06 0.18,0.05 0.09,0.02 0.1,0.02 0.1,0.02 0.11,0.02 0.11,0.02 0.11,0.02 0.12,0.02 0.13,0.01 0.13,0.01 0.14,0.02 0.14,0.01 0.14,0.01 0.15,0.01 0.16,0.01 0.16,0.01 0.17,0.01 h 0.17 l 0.18,0.01 h 0.18 l 0.19,0.01 h 0.2 0.2 0.21 0.22 c 1.49,0 1.89,0 1.89,0.96 0,0.59 -0.54,0.59 -0.79,0.59 -1.66,0 -5.74,-0.16 -7.38,-0.16 -1.5,0 -5.14,0.16 -6.62,0.16 -0.36,0 -0.96,0 -0.96,-1 0,-0.55 0.46,-0.55 1.39,-0.55 0.11,0 1.05,0 1.91,-0.09 0.89,-0.11 1.34,-0.16 1.34,-0.8 0,-0.2 -0.06,-0.36 -0.2,-0.95 l -6.67,-26.75 c -0.5,-1.95 -0.61,-2.34 -4.55,-2.34 -0.84,0 -1.34,0 -1.34,-1 0,-0.55 0.45,-0.55 1.34,-0.55 h 23.08 c 1.19,0 1.23,0 1.55,0.84 l 3.92,10.77 c 0.2,0.55 0.2,0.64 0.2,0.7 0,0.19 -0.14,0.55 -0.59,0.55 -0.46,0 -0.5,-0.25 -0.85,-1.05 -1.7,-4.59 -3.89,-10.26 -12.51,-10.26 h -4.67 c -0.71,0 -0.8,0 -1.1,0.04 -0.5,0.05 -0.65,0.1 -0.65,0.5 0,0.14 0,0.25 0.25,1.14 z"
           inkscape:connector-curvature="0"
           style="fill:#000000;stroke-width:0" /><path
           id="path146"
           d="m 498.68,421.9 0.01,0.01 v 0 0 0.01 0 0.01 l 0.01,0.01 v 0 0.01 0.01 l 0.01,0.01 v 0.02 l 0.01,0.02 v 0.02 l 0.01,0.02 0.01,0.02 v 0.02 l 0.01,0.03 v 0.02 l 0.02,0.05 0.01,0.04 v 0.03 l 0.01,0.02 v 0.02 l 0.01,0.02 v 0.02 l 0.01,0.02 v 0.02 0.01 l 0.01,0.01 v 0.01 0 0.01 0 0.01 0 0.01 0 0 0.01 0 c 0,0.19 -0.14,0.5 -0.56,0.5 -0.7,0 -3.59,-0.28 -4.45,-0.36 -0.28,-0.03 -0.78,-0.06 -0.78,-0.8 0,-0.48 0.5,-0.48 0.9,-0.48 1.68,0 1.68,-0.25 1.68,-0.53 0,-0.24 -0.35,-1.63 -0.55,-2.44 l -0.8,-3.2 c -0.33,-1.19 -2.23,-8.82 -2.31,-9.27 -0.17,-0.84 -0.17,-1.3 -0.17,-1.7 0,-3.53 2.23,-5.75 5.12,-5.75 l 0.03,0.97 c -1.7,0 -2.67,1.5 -2.67,3.56 0,1.28 0.31,2.47 1.28,6.41 0.21,0.65 0.21,0.73 0.88,1.5 1.33,1.53 2.89,2.29 4.14,2.29 1.36,0 2.55,-1.01 2.55,-3.37 0,-1.44 -0.77,-4.99 -1.82,-7.02 -0.84,-1.7 -2.58,-3.37 -4.36,-3.37 v 0 l -0.03,-0.97 c 4.36,0 8.99,4.73 8.99,9.89 0,4.08 -2.82,5.81 -5.22,5.81 -1.81,0 -3.35,-1 -4.39,-1.91 z"
           inkscape:connector-curvature="0"
           style="fill:#000000;stroke-width:0" /></g>    </g>
    <path
       style="fill:none;stroke:#000000;stroke-width:0.26499999;stroke-linecap:butt;stroke-linejoin:miter;stroke-miterlimit:4;stroke-dasharray:none;stroke-opacity:1;marker-start:url(#Arrow1Lstart);marker-end:url(#marker5009)"
       d="M 27.970237,263.5913 H 154.59226"
       id="path177"
       inkscape:connector-curvature="0"
       sodipodi:nodetypes="cc" />
    <path
       style="fill:none;stroke:#000000;stroke-width:0.26458332px;stroke-linecap:butt;stroke-linejoin:miter;stroke-opacity:1;marker-start:url(#marker5155);marker-end:url(#marker5057)"
       d="M 162.63013,245.9732 V 165.0863"
       id="path5047"
       inkscape:connector-curvature="0"
       sodipodi:nodetypes="cc" />
    <path
       style="fill:none;stroke:#000000;stroke-width:0.26458332px;stroke-linecap:butt;stroke-linejoin:miter;stroke-opacity:1;marker-start:url(#marker5251);marker-end:url(#marker5103)"
       d="M 86.440334,15.409695 H 96.551198"
       id="path5241"
       inkscape:connector-curvature="0" />
    <path
       style="fill:none;stroke:#000000;stroke-width:0.26458332px;stroke-linecap:butt;stroke-linejoin:miter;stroke-opacity:1"
       d="M 27.970237,245.9732 58.586311,165.0863 H 86.17857 L 86.26438,18.431532 H 96.98725 L 97.517856,165.0863 h 29.860114 l 27.21429,80.8869 z"
       id="path5363"
       inkscape:connector-curvature="0"
       sodipodi:nodetypes="ccccccccc" />
    <path
       style="fill:none;stroke:#000000;stroke-width:0.19346258;stroke-linecap:butt;stroke-linejoin:miter;stroke-miterlimit:4;stroke-dasharray:none;stroke-opacity:1;marker-start:url(#Arrow1Lstart-1);marker-end:url(#marker5009-8)"
       d="M 59.173514,169.81102 H 126.65919"
       id="path177-4"
       inkscape:connector-curvature="0"
       sodipodi:nodetypes="cc" />
  </g>
</svg>
